<svg width="513" height="513" viewBox="0 0 513 513" fill="none" xmlns="http://www.w3.org/2000/svg">
<g clip-path="url(#clip0_1_2)">
<path d="M509 256.5C509 395.959 396.168 509 257 509C117.832 509 5 395.959 5 256.5C5 117.041 117.832 4 257 4C396.168 4 509 117.041 509 256.5Z" fill="white" stroke="#007C3D" stroke-width="8"/>
<circle cx="256.5" cy="256.5" r="229.5" fill="#007C3D"/>
<path d="M258.056 323.898C232.334 326.519 228.479 258.756 227.732 243.685C225.659 201.018 230.978 162.207 241.781 120.241C246.912 100.33 251.808 80.3378 256.471 60.2642C256.487 60.1893 256.528 60.1223 256.588 60.0743C256.648 60.0262 256.722 60 256.799 60C256.875 60 256.949 60.0262 257.009 60.0743C257.069 60.1223 257.11 60.1893 257.126 60.2642C264.806 91.4413 273.934 123.03 279.816 154.573C287.11 193.704 288.359 233.171 283.564 272.973C282.101 285.133 275.686 322.116 258.056 323.898Z" fill="white"/>
<path d="M280.501 103.997C285.682 96.988 292.189 94.9003 301.042 93.1632C307.214 91.9594 311.465 88.0889 316.402 84.5994C318.962 82.7861 322.04 82.4508 324.951 81.3537C325.03 81.322 325.117 81.3132 325.201 81.3282C325.285 81.3432 325.363 81.3813 325.426 81.4384C325.49 81.4955 325.536 81.5692 325.56 81.6512C325.583 81.7331 325.584 81.8201 325.56 81.9022C321.035 99.167 321.675 118.794 322.193 136.516C323.381 178.177 324.981 220.234 318.292 261.544C314.3 286.245 302.901 314.832 275.229 319.251C274.68 319.342 274.574 319.17 274.909 318.733C281.888 309.63 286.622 299.045 289.111 286.976C294.2 262.321 294.947 237.209 293.789 212.127C292.143 176.155 287.613 140.584 280.197 105.415C280.085 104.897 280.186 104.424 280.501 103.997Z" fill="white"/>
<path d="M217.279 94.367C222.779 95.1594 234.589 99.9594 232.913 108.02C221.987 160.729 215.633 218.573 221.85 272.226C223.861 289.537 228.418 304.424 238.734 318.565C239.171 319.164 239.028 319.398 238.307 319.266C208.242 313.948 197.423 280.866 194.056 254.215C187.839 205.133 191.648 152.805 191.465 106.893C191.435 99.2229 190.368 91.1061 188.265 82.5422C188.164 82.1156 188.336 81.9175 188.783 81.948C193.517 82.2934 196.799 83.3651 198.627 85.1632C203.828 90.273 210.046 93.341 217.279 94.367Z" fill="white"/>
<path d="M183.602 142.611C183.738 142.65 183.857 142.732 183.942 142.845C184.027 142.957 184.074 143.094 184.075 143.236C185.05 182.657 183.831 222.733 190.109 261.818C193.263 281.415 199.587 298.908 211.656 312.668C211.722 312.737 211.763 312.826 211.773 312.921C211.783 313.015 211.76 313.111 211.709 313.192C211.659 313.272 211.582 313.334 211.492 313.366C211.402 313.398 211.304 313.399 211.214 313.369C149.82 294.885 152.837 234.847 151.267 183.845C150.703 164.98 148.844 148.371 140.479 131.777C140.143 131.126 140.336 130.867 141.058 130.999C147.305 132.157 153.172 134.154 158.658 136.988C165.301 140.432 175.892 140.432 183.602 142.611Z" fill="white"/>
<path d="M329.964 145.14C329.987 144.374 330.264 143.637 330.753 143.047C331.241 142.456 331.913 142.045 332.661 141.879C340.341 140.173 349.423 139.944 356.692 136.455C361.913 133.935 367.298 132.066 372.844 130.847C372.951 130.824 373.061 130.832 373.164 130.869C373.266 130.907 373.355 130.972 373.422 131.058C373.489 131.144 373.53 131.247 373.541 131.355C373.552 131.463 373.532 131.572 373.484 131.67C360.364 158.855 362.528 187.929 361.233 222.702C359.679 264.775 346.117 300.935 302.597 313.323C302.535 313.344 302.469 313.344 302.408 313.323C302.347 313.302 302.294 313.261 302.259 313.206C302.224 313.152 302.208 313.087 302.214 313.023C302.22 312.959 302.247 312.898 302.292 312.851C324.052 288.15 327.435 248.881 328.197 217.643C328.755 194.288 329.345 170.121 329.964 145.14Z" fill="white"/>
<path d="M214.627 329.902C214.775 329.914 214.915 329.976 215.023 330.078C215.132 330.179 215.202 330.315 215.223 330.462C215.245 330.609 215.215 330.759 215.14 330.887C215.065 331.015 214.949 331.114 214.81 331.167C200.496 336.643 189.398 346.08 181.515 359.479C176.776 367.525 171.199 378.466 164.875 383.784C152.075 394.497 137.111 388.417 125.362 379.03C109.362 366.245 95.8766 342.977 71.13 333.59C71.0932 333.576 71.0612 333.552 71.0381 333.521C71.015 333.489 71.0018 333.451 71.0002 333.412C70.9985 333.373 71.0086 333.334 71.0289 333.301C71.0493 333.267 71.0792 333.241 71.1147 333.224C93.8652 323.868 114.193 328.043 135.694 338.131C142.094 341.117 146.97 342.834 150.322 343.281C168.349 345.674 182.353 333.194 200.059 330.466C204.824 329.735 209.68 329.547 214.627 329.902Z" fill="white"/>
<path d="M298.787 330.344C324.555 326.291 347.595 351.525 371.488 340.965C396.098 330.1 415.861 322.329 442.559 333.3C442.955 333.463 442.95 333.615 442.543 333.757C423.099 340.447 406.84 359.784 395.031 372.584C386.421 381.91 374.216 390.565 361.446 389.346C346.482 387.898 339.884 372.63 331.442 358.077C324.331 345.826 313.421 336.825 298.711 331.076C297.827 330.73 297.852 330.486 298.787 330.344Z" fill="white"/>
<path d="M277.911 332.081C310.246 336.302 331.153 374.017 321.263 403.639C311.511 432.836 273.4 431.647 257.248 452.203C256.913 452.63 256.588 452.625 256.273 452.188C244.89 436.874 223.221 434.375 208.303 423.586C173.774 398.611 191.465 350.032 225.141 334.9C236.082 329.973 246.52 330.74 256.456 337.201C256.872 337.476 257.284 337.465 257.69 337.171C263.755 332.803 270.495 331.106 277.911 332.081Z" fill="white"/>
</g>
<defs>
<clipPath id="clip0_1_2">
<rect width="512" height="512" fill="white" transform="translate(0.5 0.5)"/>
</clipPath>
</defs>
</svg>
